<?xml version="1.0" standalone="no"?>
<!DOCTYPE svg PUBLIC "-//W3C//DTD SVG 20010904//EN"
 "http://www.w3.org/TR/2001/REC-SVG-20010904/DTD/svg10.dtd">
<svg version="1.0" xmlns="http://www.w3.org/2000/svg"
 width="260.000000pt" height="260.000000pt" viewBox="0 0 260.000000 260.000000"
 preserveAspectRatio="xMidYMid meet">
<metadata>
Created by potrace 1.11, written by Peter Selinger 2001-2013
</metadata>
<g transform="translate(0.000000,260.000000) scale(0.100000,-0.100000)"
fill="#000000" stroke="none">
<path d="M0 1300 l0 -1300 1300 0 1300 0 0 1300 0 1300 -1300 0 -1300 0 0
-1300z m1810 381 c25 -13 53 -31 64 -40 29 -26 57 -89 59 -134 l2 -42 -48 0
c-48 0 -49 1 -62 39 -21 59 -60 93 -122 106 -122 26 -223 -27 -223 -116 0 -65
28 -81 220 -128 88 -21 157 -44 180 -60 98 -64 108 -233 20 -317 -53 -51 -141
-79 -245 -79 -99 0 -168 19 -219 62 -45 37 -86 117 -86 171 l0 37 49 0 c52 0
51 1 65 -62 21 -93 154 -141 283 -103 65 19 103 61 103 114 0 75 -35 98 -215
141 -179 43 -235 76 -256 154 -30 111 35 230 148 272 61 23 227 14 283 -15z
m-688 -291 c59 -162 121 -332 137 -377 l30 -83 -62 0 -63 0 -38 115 -38 116
-145 -3 -146 -3 -41 -112 -40 -113 -58 0 -58 0 18 48 c10 26 74 197 142 380
l125 332 65 -2 65 -3 107 -295z"/>
<path d="M888 1408 l-55 -153 105 -3 c57 -1 106 -1 108 1 4 3 -93 298 -100
304 -2 2 -28 -65 -58 -149z"/>
</g>
</svg>
